<?xml version="1.0" encoding="UTF-8"?>
<svg version="1.1" xmlns="http://www.w3.org/2000/svg" width="1024" height="581">
<path d="M0 0 C1.02230209 -0.0033284 2.04460419 -0.0066568 3.09788513 -0.01008606 C5.25706536 -0.01513364 7.41625333 -0.01749506 9.57543945 -0.01733398 C12.83623555 -0.01950801 16.09668608 -0.03765275 19.35742188 -0.05664062 C47.78899841 -0.13582471 70.69725588 5.22587893 91.87109375 25.29296875 C113.19886423 46.665026 114.71754454 74.53296816 114.72258663 102.85422707 C114.71872153 105.33074225 114.70995587 107.80719492 114.69970703 110.28369141 C114.68258995 114.45964742 114.69250784 118.63502563 114.71042442 122.81096077 C114.72139003 126.08515591 114.71775873 129.35921941 114.71004105 132.63341904 C114.70807556 134.17121326 114.71036557 135.70902045 114.71747971 137.24679947 C114.74699511 145.41087343 114.34273313 153.30094072 112.95947266 161.35888672 C112.84173681 162.05216631 112.72400097 162.7454459 112.60269737 163.45973396 C111.40258964 169.80801703 108.94265349 174.88370322 105.30859375 180.16796875 C104.90253906 180.82023438 104.49648437 181.4725 104.078125 182.14453125 C98.31352014 190.19724081 87.53852656 193.96158781 78.16281128 195.75923157 C73.11238306 196.4824763 68.08526153 196.43223894 62.9921875 196.3984375 C61.85451431 196.39797928 60.71684113 196.39752106 59.54469299 196.39704895 C57.1605626 196.39404687 54.7764338 196.38622258 52.39233398 196.3737793 C48.72567902 196.35536623 45.0592748 196.35327097 41.39257812 196.35351562 C39.07161238 196.34860559 36.75064835 196.34277953 34.4296875 196.3359375 C33.32878281 196.33482468 32.22787811 196.33371185 31.09361267 196.33256531 C30.08488602 196.32618546 29.07615936 196.3198056 28.03686523 196.31323242 C26.6997776 196.30751472 26.6997776 196.30751472 25.3356781 196.30168152 C23.30859375 196.16796875 23.30859375 196.16796875 22.30859375 195.16796875 C22.18241404 192.74952424 22.11988571 190.36137144 22.10546875 187.94140625 C22.09976868 187.20153473 22.0940686 186.46166321 22.0881958 185.69937134 C22.07871792 184.12055904 22.07220083 182.5417267 22.06835938 180.96289062 C22.05882866 178.60117934 22.02791186 176.24040624 21.99609375 173.87890625 C21.87055479 156.0543706 24.68029094 139.31971558 36.30859375 125.16796875 C37.29859375 123.68296875 37.29859375 123.68296875 38.30859375 122.16796875 C38.96859375 122.16796875 39.62859375 122.16796875 40.30859375 122.16796875 C40.80359375 120.68296875 40.80359375 120.68296875 41.30859375 119.16796875 C50.7245155 110.57863555 62.06794676 106.71598242 74.26171875 103.84375 C74.9371875 103.62074219 75.61265625 103.39773438 76.30859375 103.16796875 C76.63859375 102.50796875 76.96859375 101.84796875 77.30859375 101.16796875 C76.67695313 101.15378906 76.0453125 101.13960938 75.39453125 101.125 C62.80437964 100.45376713 52.06842245 96.05418287 42.30859375 88.16796875 C41.60089844 87.62269531 40.89320313 87.07742188 40.1640625 86.515625 C26.6127577 75.50357043 21.4202785 59.73464788 18.30859375 43.16796875 C18.30859375 41.84796875 18.30859375 40.52796875 18.30859375 39.16796875 C16.09729403 39.98522187 16.09729403 39.98522187 15.55004883 42.29418945 C15.31181396 43.21804443 15.0735791 44.14189941 14.828125 45.09375 C14.55516602 46.11243164 14.28220703 47.13111328 14.00097656 48.18066406 C13.56543457 49.81406738 13.56543457 49.81406738 13.12109375 51.48046875 C7.86060594 70.17408569 -1.2379421 84.73497738 -18.42578125 94.55078125 C-25.91929883 98.26168589 -33.58836501 100.38790808 -41.828125 101.67578125 C-42.44300781 101.83820313 -43.05789062 102.000625 -43.69140625 102.16796875 C-44.02140625 102.82796875 -44.35140625 103.48796875 -44.69140625 104.16796875 C-43.23734375 104.35359375 -43.23734375 104.35359375 -41.75390625 104.54296875 C-25.51582193 106.91498459 -12.05126841 113.0960126 -1.69140625 126.16796875 C9.64960731 141.98014333 10.931782 158.8580572 10.55859375 177.73046875 C10.5384608 179.53188077 10.52022226 181.33331499 10.50390625 183.13476562 C10.4605339 187.47973157 10.39189914 191.8235926 10.30859375 196.16796875 C3.08403113 196.23797912 -4.14045641 196.29103571 -11.3652916 196.32340527 C-14.72139869 196.33895398 -18.07709557 196.36165068 -21.43310547 196.39428711 C-25.30572526 196.43098418 -29.17801832 196.44776707 -33.05078125 196.4609375 C-34.23565125 196.47642136 -35.42052124 196.49190521 -36.64129639 196.50785828 C-49.59289155 196.51043199 -61.09521879 194.01655252 -70.9140625 185.1640625 C-81.28213823 174.33087683 -83.88821829 161.3443628 -84.31640625 146.85546875 C-84.35362793 145.72898926 -84.39084961 144.60250977 -84.42919922 143.44189453 C-84.76019488 131.81128661 -84.79758648 120.17762221 -84.81640625 108.54296875 C-84.81908508 107.61020111 -84.82176392 106.67743347 -84.82452393 105.71640015 C-84.89465741 73.49360583 -82.30211392 46.25234803 -58.69140625 22.16796875 C-42.61070871 6.77426304 -21.99718384 0.02523883 0 0 Z " fill="#6C4CEE" transform="translate(140.69140625,212.83203125)"/>
<path d="M0 0 C6.81342714 -0.10190419 13.62665577 -0.17167623 20.44067383 -0.21972656 C22.75585271 -0.23977 25.07098142 -0.26701225 27.38598633 -0.30175781 C30.72489851 -0.35059542 34.06313799 -0.37304225 37.40234375 -0.390625 C38.42770737 -0.41127014 39.45307098 -0.43191528 40.50950623 -0.45318604 C50.91376039 -0.45639246 59.21005689 3.32145091 66.6875 10.625 C71.10916085 16.25905173 72.76506047 23.98694573 72 31 C70.32860963 39.28166401 66.03262322 45.25438419 59.0625 50 C58.0415625 50.495 58.0415625 50.495 57 51 C57.59167969 51.36351562 58.18335938 51.72703125 58.79296875 52.1015625 C66.0192468 56.6990314 71.05801026 60.96800047 73.55859375 69.44140625 C74.75885173 76.39865382 73.99910359 83.96582242 70.40625 90.125 C64.48145504 98.02472662 57.53687491 101.87297855 48 104 C42.02745536 104.7161143 36.00712291 104.69685056 30 104.75 C28.42184371 104.77825095 26.84371672 104.80819055 25.265625 104.83984375 C16.84434978 104.99681927 8.42265052 105.03715875 0 105 C-0.79715173 102.18784963 -1.12546283 99.69351725 -1.12698364 96.77401733 C-1.12980347 95.93840775 -1.13262329 95.10279816 -1.13552856 94.24186707 C-1.13350433 93.33366714 -1.1314801 92.42546722 -1.12939453 91.48974609 C-1.13114685 90.52677109 -1.13289917 89.56379608 -1.13470459 88.57164001 C-1.13910571 85.38888751 -1.13619167 82.20619057 -1.1328125 79.0234375 C-1.13348593 76.81434112 -1.13445628 74.60524481 -1.13571167 72.39614868 C-1.13718619 67.76767267 -1.13504153 63.13921596 -1.13037109 58.51074219 C-1.12466729 52.56748104 -1.12795849 46.62426498 -1.13394356 40.68100548 C-1.13755009 36.12067319 -1.13641027 31.56035167 -1.13381577 27.00001907 C-1.1331471 24.8078778 -1.13397283 22.61573557 -1.13629532 20.42359543 C-1.13882406 17.36619206 -1.13497838 14.30886268 -1.12939453 11.25146484 C-1.13141876 10.33921646 -1.13344299 9.42696808 -1.13552856 8.48707581 C-1.11426515 2.22853029 -1.11426515 2.22853029 0 0 Z M23 18 C23 18.66 23 19.32 23 20 C22.01 19.67 21.02 19.34 20 19 C20 26.92 20 34.84 20 43 C24.4859375 43.0928125 24.4859375 43.0928125 29.0625 43.1875 C29.99070557 43.21481201 30.91891113 43.24212402 31.87524414 43.27026367 C38.50831129 43.33617619 43.29225407 42.36059901 48.4375 37.875 C50.58169793 33.92967581 50.67809931 30.40764551 50 26 C49.04959348 23.2062226 48.15569783 22.12128333 45.80859375 20.29296875 C42.44077393 18.74255378 39.75884855 18.49310335 36.0625 18.3125 C34.28552734 18.21388672 34.28552734 18.21388672 32.47265625 18.11328125 C29.31164257 18.01016607 26.16235864 17.97585986 23 18 Z M20 60 C20 68.91 20 77.82 20 87 C23.96 87.061875 23.96 87.061875 28 87.125 C28.8146875 87.14320801 29.629375 87.16141602 30.46875 87.18017578 C36.79706869 87.22733393 43.09075653 86.64566153 48.4375 82.9375 C51.82192426 79.05779414 52.23929205 76.05274367 52 71 C50.99472676 66.47627041 48.77380033 64.57722949 45 62 C42.0804957 61.0268319 39.94555049 60.8070454 36.89453125 60.68359375 C36.00870361 60.64548584 35.12287598 60.60737793 34.21020508 60.56811523 C33.0889624 60.52501221 31.96771973 60.48190918 30.8125 60.4375 C27.244375 60.293125 23.67625 60.14875 20 60 Z " fill="#020201" transform="translate(703,260)"/>
<path d="M0 0 C2.17781913 1.78835512 4.25670538 3.6345554 6.30078125 5.57421875 C7.88565862 7.21425966 7.88565862 7.21425966 10 7 C11.26573314 5.93794805 12.48895022 4.8248272 13.6875 3.6875 C20.07248337 -1.95504345 25.53783356 -3.59761499 34 -3.34375 C40.3532316 -2.61577555 45.0766633 -0.37634767 49.375 4.375 C54.5967124 11.15888674 56.13235595 17.43982423 56.11352539 25.91357422 C56.11341209 27.62466873 56.11341209 27.62466873 56.11329651 29.37033081 C56.10813522 30.58616852 56.10297394 31.80200623 56.09765625 33.0546875 C56.0962413 34.31137238 56.09482635 35.56805725 56.09336853 36.86282349 C56.08873074 40.1869194 56.0797618 43.51094542 56.06866455 46.83502197 C56.05839401 50.23375854 56.05385887 53.63250235 56.04882812 57.03125 C56.03781699 63.68751917 56.02109222 70.34375555 56 77 C52.68751813 77.02888146 49.37506833 77.04675799 46.0625 77.0625 C45.11697266 77.07087891 44.17144531 77.07925781 43.19726562 77.08789062 C41.84858398 77.09272461 41.84858398 77.09272461 40.47265625 77.09765625 C39.22367554 77.10551147 39.22367554 77.10551147 37.94946289 77.11352539 C36 77 36 77 35 76 C34.94984066 73.28512594 34.96048416 70.58912801 35 67.875 C35.04990035 59.1498013 34.96023826 50.42934908 34.73754883 41.70709229 C34.70434612 40.3258193 34.67629956 38.94441217 34.65356445 37.56292725 C34.62012318 35.59635491 34.56622943 33.63016363 34.51171875 31.6640625 C34.48553467 30.52404785 34.45935059 29.3840332 34.43237305 28.20947266 C33.86276351 23.98130382 32.61579911 20.32726356 29.25 17.5625 C25.85741833 16.71435458 23.38042846 17.16971933 20 18 C15.49204709 20.70477175 14.25805027 22.9795435 13 28 C12.67699704 31.69373922 12.62795298 35.37960109 12.5859375 39.0859375 C12.56657135 40.14285797 12.5472052 41.19977844 12.5272522 42.28872681 C12.46767086 45.65073684 12.42115658 49.01278151 12.375 52.375 C12.33680052 54.66017084 12.29774764 56.94532758 12.2578125 59.23046875 C12.16198698 64.820187 12.07687711 70.40999076 12 76 C9 77 9 77 6 76 C5.67 76.66 5.34 77.32 5 78 C4.01 77.67 3.02 77.34 2 77 C0.27204648 76.93197033 -1.45835365 76.91504355 -3.1875 76.9375 C-4.08855469 76.94652344 -4.98960937 76.95554687 -5.91796875 76.96484375 C-6.60503906 76.97644531 -7.29210937 76.98804688 -8 77 C-8.88640367 71.71560331 -9.12041157 66.67186163 -9.0625 61.3203125 C-9.05871338 60.50811249 -9.05492676 59.69591248 -9.05102539 58.85910034 C-9.03482593 55.41593011 -9.00670011 51.97288317 -8.97949219 48.52978516 C-8.96125917 46.00163334 -8.94925916 43.47350145 -8.9375 40.9453125 C-8.92920166 40.18251984 -8.92090332 39.41972717 -8.91235352 38.63381958 C-8.63048259 28.7970982 -8.63048259 28.7970982 -12.0625 19.9375 C-15.37110148 17.75523094 -17.18757234 17.31097203 -21.0703125 17.58203125 C-24.25266385 18.27132598 -25.85188271 19.59916303 -28 22 C-30.50550733 27.5580928 -30.34624488 33.10350134 -30.4140625 39.0859375 C-30.43342865 40.14285797 -30.4527948 41.19977844 -30.4727478 42.28872681 C-30.53232914 45.65073684 -30.57884342 49.01278151 -30.625 52.375 C-30.66319948 54.66017084 -30.70225236 56.94532758 -30.7421875 59.23046875 C-30.83801302 64.820187 -30.92312289 70.40999076 -31 76 C-35.3147726 76.94110889 -39.410968 77.1172559 -43.8125 77.0625 C-44.50537109 77.05798828 -45.19824219 77.05347656 -45.91210938 77.04882812 C-47.60811068 77.03713156 -49.30406703 77.01919924 -51 77 C-52.10229516 73.69311452 -52.1269547 71.24222163 -52.12939453 67.75952148 C-52.13254669 66.47065536 -52.13569885 65.18178925 -52.13894653 63.85386658 C-52.13715531 62.44294196 -52.13510401 61.03201765 -52.1328125 59.62109375 C-52.13348657 58.16960128 -52.13445746 56.71810891 -52.13571167 55.26661682 C-52.13718705 52.21931894 -52.13504139 49.17205034 -52.13037109 46.12475586 C-52.12470941 42.24377033 -52.12793105 38.36285451 -52.13394356 34.4818716 C-52.13758394 31.47989899 -52.13639412 28.47794246 -52.13381577 25.47596931 C-52.13315422 24.04682469 -52.13394753 22.61767854 -52.13629532 21.18853569 C-52.14629463 13.38217537 -51.94276161 5.75227158 -51 -2 C-44.73 -2 -38.46 -2 -32 -2 C-31.34 -0.35 -30.68 1.3 -30 3 C-29.67 3.33 -29.34 3.66 -29 4 C-28.39671875 3.57847656 -27.7934375 3.15695312 -27.171875 2.72265625 C-26.37265625 2.17480469 -25.5734375 1.62695312 -24.75 1.0625 C-23.96109375 0.51722656 -23.1721875 -0.02804687 -22.359375 -0.58984375 C-15.37438945 -4.76464472 -6.88521486 -3.88075747 0 0 Z " fill="#030302" transform="translate(636,288)"/>
<path d="M0 0 C0.804375 0.598125 1.60875 1.19625 2.4375 1.8125 C2.4375 -0.1675 2.4375 -2.1475 2.4375 -4.1875 C5.39589355 -4.21439449 8.35404427 -4.23428741 11.3125 -4.25 C12.15425781 -4.25837891 12.99601563 -4.26675781 13.86328125 -4.27539062 C14.66894531 -4.27861328 15.47460938 -4.28183594 16.3046875 -4.28515625 C17.42012939 -4.29301147 17.42012939 -4.29301147 18.55810547 -4.30102539 C20.4375 -4.1875 20.4375 -4.1875 22.4375 -3.1875 C23.45705265 17.15203313 23.67883589 37.45299319 23.4375 57.8125 C23.42493164 58.8840332 23.41236328 59.95556641 23.39941406 61.05957031 C23.24639405 70.18768254 23.03611023 78.65741063 18.4375 86.8125 C17.880625 87.84375 17.32375 88.875 16.75 89.9375 C9.71262322 98.68667113 1.62145763 104.08817224 -9.5625 105.8125 C-19.38624248 106.33482578 -28.18632414 106.0916898 -37.5625 102.8125 C-38.635 102.544375 -39.7075 102.27625 -40.8125 102 C-45.09387396 100.15122488 -49.43848946 97.06052107 -51.5625 92.8125 C-50.389401 90.50777519 -49.17675172 88.37404042 -47.8125 86.1875 C-47.4515625 85.57648438 -47.090625 84.96546875 -46.71875 84.3359375 C-45.640625 82.5859375 -45.640625 82.5859375 -43.5625 79.8125 C-40.13213233 79.8125 -38.89014 80.59558425 -35.9375 82.25 C-31.72731645 84.43510988 -28.28914324 85.42809777 -23.5703125 85.671875 C-21.5625 85.8125 -21.5625 85.8125 -19.61328125 86.37109375 C-14.60711472 87.4486115 -9.11250427 85.62119788 -4.6875 83.3125 C-0.7451041 78.67438718 1.27038532 73.23566288 1.6875 67.1875 C1.605 66.40375 1.5225 65.62 1.4375 64.8125 C0.756875 65.575625 0.07625 66.33875 -0.625 67.125 C-6.48109873 72.48270734 -12.78747336 73.80087814 -20.5625 73.8125 C-29.6526079 73.05613701 -36.14999181 69.65969569 -42.3125 63 C-46.43073122 58.01477273 -49.5625 53.38084515 -49.5625 46.8125 C-50.5525 46.4825 -51.5425 46.1525 -52.5625 45.8125 C-51.9025 45.8125 -51.2425 45.8125 -50.5625 45.8125 C-50.5625 44.4925 -50.5625 43.1725 -50.5625 41.8125 C-51.2225 41.4825 -51.8825 41.1525 -52.5625 40.8125 C-51.36691309 26.51265128 -50.17176366 13.52598039 -39.5625 2.8125 C-27.93233143 -6.77981602 -12.82090265 -8.41746178 0 0 Z M-25.5625 17.8125 C-30.47387186 24.42457344 -31.25812486 32.59897476 -30.19140625 40.59375 C-28.69685875 46.75759809 -25.97346332 50.4798385 -20.5625 53.8125 C-15.5625025 55.47916583 -11.27595913 55.38873861 -6.4375 53.3125 C-1.89592945 50.76392934 0.63691015 47.69650338 2.4375 42.8125 C3.98625394 35.19378497 4.24792939 27.77889572 0.4375 20.8125 C-2.58970343 17.25553597 -5.47333807 14.07176108 -10.26953125 13.4765625 C-18.70290398 13.29992621 -18.70290398 13.29992621 -25.5625 17.8125 Z " fill="#020202" transform="translate(949.5625,290.1875)"/>
<path d="M0 0 C6.6 0 13.2 0 20 0 C20.33 11.88 20.66 23.76 21 36 C22.485 35.505 22.485 35.505 24 35 C24 34.34 24 33.68 24 33 C25.269553 32.35165346 26.54069706 31.70642185 27.8125 31.0625 C28.52019531 30.70285156 29.22789062 30.34320313 29.95703125 29.97265625 C36.3017895 26.95192049 43.83277394 27.02057711 50.609375 28.61328125 C57.87996953 31.45884152 62.45337856 36.61059556 65.65234375 43.62109375 C67.36512157 48.48443994 67.56511183 53.19237545 67.6875 58.3125 C67.72093506 59.31345703 67.75437012 60.31441406 67.78881836 61.34570312 C68.22634224 76.55562421 68.08525248 91.78571194 68 107 C65.65147472 108.17426264 64.26225935 108.11508173 61.6484375 108.09765625 C60.37226563 108.09282227 60.37226563 108.09282227 59.0703125 108.08789062 C58.18085938 108.07951172 57.29140625 108.07113281 56.375 108.0625 C55.4778125 108.05798828 54.580625 108.05347656 53.65625 108.04882812 C51.43743352 108.03702591 49.21874982 108.02056155 47 108 C46.98786972 107.09917191 46.98786972 107.09917191 46.97549438 106.18014526 C46.88930094 99.91806198 46.78979095 93.65628986 46.68261719 87.39453125 C46.64438246 85.05897252 46.60952005 82.723356 46.578125 80.38769531 C46.5323553 77.02648295 46.47437964 73.66566645 46.4140625 70.3046875 C46.39673569 68.74341629 46.39673569 68.74341629 46.37905884 67.15060425 C46.30200858 58.6176407 46.30200858 58.6176407 42.5 51.1875 C38.49175767 48.01430816 33.88546594 48.59929932 29 49 C25.98049847 49.79427959 25.98049847 49.79427959 24 52 C21.00093534 58.44837876 20.53395004 64.01000082 20.48828125 71.0625 C20.47033005 72.09439453 20.45237885 73.12628906 20.43388367 74.18945312 C20.38004544 77.45959484 20.34596978 80.72959281 20.3125 84 C20.27930358 86.22788447 20.24481179 88.45575004 20.20898438 90.68359375 C20.12433446 96.12226685 20.05587333 101.56095918 20 107 C16.78398229 107.86016729 13.96376846 108.13435229 10.625 108.125 C9.70976562 108.12757813 8.79453125 108.13015625 7.8515625 108.1328125 C4.83523142 107.99232585 1.97217961 107.51790705 -1 107 C-1.02316181 93.78720884 -1.04093472 80.5744225 -1.05181217 67.36161518 C-1.05703257 61.22650244 -1.06411499 55.09140358 -1.07543945 48.95629883 C-1.08629819 43.0365148 -1.0922832 37.11674413 -1.09487724 31.19695091 C-1.09672609 28.93750994 -1.10033637 26.67806971 -1.10573006 24.41863441 C-1.11298005 21.25604289 -1.11398926 18.09350669 -1.11352539 14.9309082 C-1.11712067 13.99510925 -1.12071594 13.0593103 -1.12442017 12.09515381 C-1.1230455 11.23003677 -1.12167084 10.36491974 -1.12025452 9.47358704 C-1.12117631 8.72601293 -1.1220981 7.97843882 -1.12304783 7.20821095 C-1 5 -1 5 0 0 Z " fill="#020202" transform="translate(431,257)"/>
<path d="M0 0 C8.30217916 5.94915512 13.67881543 14.02602261 15.8046875 24.1171875 C17.44260823 37.25398026 16.02798471 49.00582098 8.5 60.125 C2.41942519 67.84654325 -5.05998921 72.61199425 -14.8125 74.1875 C-25.7436701 75.10503863 -36.35413953 74.79802662 -45.59765625 68.19921875 C-55.34995977 59.88318968 -60.50760741 50.59187505 -61.625 37.8125 C-62.23884845 24.92168253 -59.01597674 14.29155249 -50.7890625 4.26171875 C-37.04795029 -10.15830216 -16.22234782 -10.08489289 0 0 Z M-36.1875 17.6875 C-40.6443069 24.544126 -41.72012454 31.96689991 -40.30859375 40.0859375 C-38.77668951 45.42755125 -37.07921582 50.26422597 -32.75 53.9375 C-27.11381648 56.33587597 -21.87821751 56.79705599 -16 55.0625 C-10.75212088 51.97551228 -7.93062884 49.22938653 -6 43.4375 C-3.65055664 34.29627499 -4.40376273 26.65175226 -8.8125 18.1875 C-12.01863289 13.84178672 -15.4339304 11.91176457 -20.75 11.0625 C-27.26299259 10.78492954 -31.75441677 13.0210966 -36.1875 17.6875 Z " fill="#020202" transform="translate(876.8125,291.8125)"/>
<path d="M0 0 C6.88851341 5.44673153 11.02016008 10.64125798 12.10205078 19.53149414 C12.30909859 23.54557521 12.39851231 27.54412706 12.4375 31.5625 C12.46531296 33.01947732 12.49454493 34.47642819 12.52514648 35.93334961 C12.60982278 40.33042302 12.6552688 44.72725982 12.6875 49.125 C12.69267639 49.80679321 12.69785278 50.48858643 12.70318604 51.19104004 C12.7591751 59.16960319 12.74945528 67.14653715 12.6875 75.125 C6.4175 74.795 0.1475 74.465 -6.3125 74.125 C-6.3125 73.465 -6.3125 72.805 -6.3125 72.125 C-7.3025 71.63 -7.3025 71.63 -8.3125 71.125 C-8.6425 70.795 -8.9725 70.465 -9.3125 70.125 C-10.01632812 70.558125 -10.72015625 70.99125 -11.4453125 71.4375 C-19.47737855 75.96733359 -26.13249432 77.54392359 -35.3125 76.125 C-42.17222661 74.01715948 -47.48153102 70.23384243 -51.3125 64.125 C-54.45895866 57.62522208 -54.49365938 50.14643567 -52.47265625 43.265625 C-49.08563979 35.73892176 -43.86050265 31.42660718 -36.3125 28.3125 C-29.06429592 25.92914469 -16.2845327 23.63898365 -9.3125 27.125 C-9.43625 25.84625 -9.56 24.5675 -9.6875 23.25 C-9.75710938 22.53070313 -9.82671875 21.81140625 -9.8984375 21.0703125 C-10.49903865 18.24862032 -12.16455775 17.24156056 -14.375 15.5 C-20.483602 12.64065438 -25.93436168 13.79319035 -32.125 16 C-35.27575231 17.22756583 -38.30954005 18.57102073 -41.3125 20.125 C-42.68196622 18.38694659 -44.03265954 16.63408767 -45.375 14.875 C-46.12910156 13.90046875 -46.88320313 12.9259375 -47.66015625 11.921875 C-49.3125 9.125 -49.3125 9.125 -49.29296875 6.953125 C-46.25284682 1.28469049 -38.8136828 -1.2817554 -33.0625 -3.25 C-21.60875223 -6.44421904 -10.42509311 -5.9009961 0 0 Z M-31.0234375 44.5859375 C-32.86633846 46.78624956 -33.1792257 48.25960265 -33.3125 51.125 C-31.73292918 55.42299298 -31.73292918 55.42299298 -28.3125 58.125 C-26.21301399 58.29971848 -24.10625592 58.39217852 -22 58.4375 C-20.30423828 58.49357422 -20.30423828 58.49357422 -18.57421875 58.55078125 C-14.66269186 58.04017475 -13.09828638 56.85547293 -10.3125 54.125 C-7.83346474 49.87522527 -8.15027598 45.91060862 -8.3125 41.125 C-15.83971205 39.30022132 -24.81951683 39.28852579 -31.0234375 44.5859375 Z " fill="#030303" transform="translate(405.3125,289.875)"/>
<path d="M0 0 C8.58346924 7.07080868 11.20679933 16.71146663 12.6875 27.375 C13.1208496 32.22438834 13.10088215 36.04821926 10.6875 40.375 C9.44137939 40.36976318 8.19525879 40.36452637 6.91137695 40.35913086 C2.28019939 40.34100619 -2.35097505 40.32954067 -6.98217773 40.32006836 C-8.98511279 40.31504522 -10.98804419 40.30822555 -12.9909668 40.29956055 C-15.87289331 40.28740655 -18.75477125 40.28175143 -21.63671875 40.27734375 C-22.52961105 40.27218246 -23.42250336 40.26702118 -24.342453 40.26170349 C-28.4652264 40.261333 -32.29214792 40.32731582 -36.3125 41.375 C-35.91496179 42.83866342 -35.49368616 44.2958935 -35.0625 45.75 C-34.83046875 46.56210937 -34.5984375 47.37421875 -34.359375 48.2109375 C-33.0762545 50.86335823 -31.95726423 51.24304091 -29.3125 52.375 C-28.9825 53.035 -28.6525 53.695 -28.3125 54.375 C-22.53875152 56.29958283 -16.15032031 56.3972256 -10.40625 54.328125 C-6.86405071 52.55702536 -3.60674008 50.57116005 -0.3125 48.375 C3.8472315 50.98692443 7.52690064 53.54397047 10.6875 57.375 C10.27644056 61.63117798 7.81710674 63.78728382 4.859375 66.62890625 C-4.94212734 74.50889104 -16.18779978 75.60806629 -28.3125 74.375 C-38.99103062 71.87886549 -46.67229399 66.78635973 -52.625 57.625 C-59.0258244 46.04421689 -60.27198457 33.37316688 -56.6875 20.625 C-52.44352523 8.53921718 -46.59551773 1.15326043 -35.05859375 -4.78515625 C-23.25838498 -9.45743044 -10.31357273 -6.87571515 0 0 Z M-33.625 15.625 C-35.85283173 18.84713036 -35.85283173 18.84713036 -36.3125 25.375 C-27.0725 25.375 -17.8325 25.375 -8.3125 25.375 C-8.3125 19.15876013 -8.72629635 18.01596942 -12.3125 13.375 C-15.28262601 10.40487399 -17.53873934 10.4323156 -21.6875 10.125 C-26.88061555 10.4831459 -29.9106191 12.01100777 -33.625 15.625 Z " fill="#030303" transform="translate(564.3125,291.625)"/>
<path d="M0 0 C-1.37287342 3.69876091 -3.06355453 6.9514476 -5.125 10.3125 C-5.66382813 11.19550781 -6.20265625 12.07851563 -6.7578125 12.98828125 C-7.16773438 13.65214844 -7.57765625 14.31601562 -8 15 C-8.59425781 14.65066406 -9.18851562 14.30132812 -9.80078125 13.94140625 C-16.05734983 10.50661821 -21.78660449 8.5678611 -29 9 C-31.74764286 9.91982066 -31.74764286 9.91982066 -34 11 C-34 11.99 -34 12.98 -34 14 C-34.66 14 -35.32 14 -36 14 C-35.00910957 16.66267204 -34.43133316 17.7807979 -31.85546875 19.08984375 C-30.97503906 19.36957031 -30.09460938 19.64929688 -29.1875 19.9375 C-28.20523438 20.27007812 -27.22296875 20.60265625 -26.2109375 20.9453125 C-25.15132813 21.29335938 -24.09171875 21.64140625 -23 22 C-13.33762203 25.23587834 -5.57490954 28.30248792 0 37.1875 C2.21162375 45.61931553 1.98632882 53.14892457 -2.390625 60.80859375 C-6.91697147 66.97189562 -13.49777143 70.76493924 -21 72 C-36.58166046 73.42919033 -48.51548655 70.83293538 -61 61 C-59.515 60.505 -59.515 60.505 -58 60 C-57.29894157 58.34750513 -56.64199649 56.67632417 -56 55 C-54.41024612 52.28333198 -52.715494 49.63871786 -51 47 C-48.65249465 47.90871175 -46.35993125 48.80020765 -44.15625 50.0234375 C-37.2859559 53.63803253 -30.64553922 53.61935975 -23 53 C-22.34 52.67 -21.68 52.34 -21 52 C-21 49.36 -21 46.72 -21 44 C-26.29739932 41.79665692 -31.57349153 39.8020013 -37.0625 38.125 C-44.02764255 35.81224996 -50.67076515 32.91094493 -54.5625 26.375 C-57.01638806 20.47209878 -57.03925193 13.82574617 -55.375 7.69921875 C-52.4355885 0.94119677 -46.68016556 -4.17639986 -39.875 -6.875 C-26.03621043 -11.56712179 -11.54925275 -8.50997571 0 0 Z " fill="#040304" transform="translate(345,294)"/>
<path d="M0 0 C0.76401123 0.00249756 1.52802246 0.00499512 2.31518555 0.00756836 C3.27980713 0.01667236 4.24442871 0.02577637 5.23828125 0.03515625 C6.8994931 0.04664953 8.56070751 0.05777518 10.22192383 0.06860352 C12.38635254 0.08312988 12.38635254 0.08312988 14.55078125 0.09765625 C15.36367952 14.4304318 15.63956922 28.7224224 15.61328125 43.07421875 C15.61184113 43.90803825 15.610401 44.74185776 15.60891724 45.60094452 C15.5966688 51.6415438 15.57459001 57.68209315 15.55078125 63.72265625 C15.52702624 69.83006815 15.50677861 75.9374555 15.49484253 82.0449028 C15.48841569 84.46117461 15.47593099 86.87736442 15.46313477 89.29360962 C15.45950337 90.77207369 15.4561515 92.25053848 15.453125 93.72900391 C15.44788818 95.01118805 15.44265137 96.29337219 15.43725586 97.6144104 C15.54342155 100.87184208 15.92936912 103.90255196 16.55078125 107.09765625 C12.5540474 108.42990087 8.71783622 108.23207738 4.55078125 108.09765625 C3.89078125 107.76765625 3.23078125 107.43765625 2.55078125 107.09765625 C2.05578125 108.08765625 2.05578125 108.08765625 1.55078125 109.09765625 C-5.0953726 107.62073317 -5.0953726 107.62073317 -6.88671875 104.97265625 C-7.07234375 104.35390625 -7.25796875 103.73515625 -7.44921875 103.09765625 C-6.45921875 102.60265625 -6.45921875 102.60265625 -5.44921875 102.09765625 C-5.77921875 101.43765625 -6.10921875 100.77765625 -6.44921875 100.09765625 C-6.28421875 99.33453125 -6.11921875 98.57140625 -5.94921875 97.78515625 C-5.40645534 94.86780293 -5.8295242 92.96374357 -6.44921875 90.09765625 C-5.95421875 89.10765625 -5.95421875 89.10765625 -5.44921875 88.09765625 C-6.10921875 87.76765625 -6.76921875 87.43765625 -7.44921875 87.09765625 C-6.45921875 86.10765625 -6.45921875 86.10765625 -5.44921875 85.09765625 C-5.6854566 83.00526387 -5.93010687 80.91338974 -6.22265625 78.828125 C-6.63217509 73.89271694 -5.98907625 69.00620674 -5.44921875 64.09765625 C-6.10921875 63.76765625 -6.76921875 63.43765625 -7.44921875 63.09765625 C-6.78921875 63.09765625 -6.12921875 63.09765625 -5.44921875 63.09765625 C-5.79984375 62.37578125 -6.15046875 61.65390625 -6.51171875 60.91015625 C-7.61343563 57.60500562 -7.2680826 56.44755382 -6.44921875 53.09765625 C-5.32844226 45.47637614 -5.27024487 38.56842383 -7.44921875 31.09765625 C-6.78921875 31.09765625 -6.12921875 31.09765625 -5.44921875 31.09765625 C-5.44921875 29.44765625 -5.44921875 27.79765625 -5.44921875 26.09765625 C-6.10921875 25.76765625 -6.76921875 25.43765625 -7.44921875 25.09765625 C-7.20365234 24.09992188 -7.20365234 24.09992188 -6.953125 23.08203125 C-6.34599464 19.48631348 -6.34122723 15.97997947 -6.38671875 12.34765625 C-6.39123047 11.66316406 -6.39574219 10.97867187 -6.40039062 10.2734375 C-6.41234812 8.54814175 -6.43028326 6.82288953 -6.44921875 5.09765625 C-6.44921875 4.76765625 -6.44921875 4.43765625 -6.44921875 4.09765625 C-6.77921875 3.10765625 -7.10921875 2.11765625 -7.44921875 1.09765625 C-4.6251011 0.1562837 -2.92003843 -0.01959757 0 0 Z " fill="#030302" transform="translate(791.44921875,256.90234375)"/>
<path d="M0 0 C3.63591862 2.01995479 5.25551558 3.9206578 6.5 7.8125 C7.37767415 12.2505504 6.29806494 15.0932896 4 19 C1.62771105 21.54173816 0.02425126 21.99371264 -3.375 22.875 C-7.65429807 23.022562 -9.48766208 22.41961057 -13 20 C-15.55669154 16.97233896 -16.8474933 14.91504018 -17.5 11 C-16.8474933 7.08495982 -15.55669154 5.02766104 -13 2 C-8.41295213 -1.15996631 -5.35312233 -1.45994245 0 0 Z " fill="#6F4DEA" transform="translate(257,215)"/>
<path d="M0 0 C2.84672349 2.84672349 2.26006162 4.76199466 2.2746582 8.75024414 C2.2823246 9.79236809 2.2823246 9.79236809 2.29014587 10.85554504 C2.30410188 13.16550208 2.30307755 15.47516188 2.30078125 17.78515625 C2.30467121 19.40067148 2.3090065 21.0161857 2.31376648 22.63169861 C2.32124608 26.03224988 2.32092947 29.43269747 2.31567383 32.83325195 C2.30994389 37.14306672 2.32664209 41.45244259 2.3500185 45.7621851 C2.36494167 49.10931287 2.36560156 52.45634024 2.36250877 55.80349541 C2.36301497 57.38874604 2.36811734 58.97400339 2.37832069 60.55922127 C2.42537839 68.90955245 2.07112599 76.98567784 0.65307617 85.22827148 C0.53520658 85.91927728 0.41733698 86.61028307 0.29589558 87.32222843 C-1.5302237 96.92205444 -6.89309214 106.4098405 -14.79296875 112.34765625 C-19.2336231 115.14081837 -19.2336231 115.14081837 -22.2109375 114.59375 C-22.80132812 114.3978125 -23.39171875 114.201875 -24 114 C-23.35933594 113.6596875 -22.71867188 113.319375 -22.05859375 112.96875 C-12.60842589 107.67327591 -6.4247899 101.38685872 -3 91 C-0.57935401 80.95015254 -0.65590644 70.81275858 -0.5859375 60.546875 C-0.56718876 58.79281746 -0.54761272 57.03876858 -0.5272522 55.284729 C-0.47631589 50.70808058 -0.43648628 46.13140303 -0.39910889 41.55462646 C-0.35882536 36.86837795 -0.30784517 32.18224652 -0.2578125 27.49609375 C-0.16151023 18.33081187 -0.07696191 9.16546329 0 0 Z " fill="#694BDF" transform="translate(253,289)"/>
<path d="M0 0 C2 2 2 2 2.22705078 5.80712891 C2.22655007 7.44697415 2.21548147 9.08684121 2.1953125 10.7265625 C2.19329834 11.49121826 2.19128418 12.25587402 2.18920898 13.04370117 C2.17873306 15.904195 2.15081049 18.76460343 2.125 21.625 C2.08375 28.01875 2.0425 34.4125 2 41 C-16.81 41 -35.62 41 -55 41 C-55.33 40.34 -55.66 39.68 -56 39 C-37.52 39 -19.04 39 0 39 C0 26.13 0 13.26 0 0 Z " fill="#6D4FDF" transform="translate(149,368)"/>
<path d="M0 0 C0.33 0 0.66 0 1 0 C1 28.71 1 57.42 1 87 C-4.83930626 81.16069374 -2.12546888 63.47026128 -2.13812256 55.51858521 C-2.13717967 53.23268509 -2.13457162 50.94678512 -2.13037109 48.66088867 C-2.12502787 45.20552144 -2.13033403 41.75028508 -2.13671875 38.29492188 C-2.14005322 28.51693834 -2.10899734 18.75296351 -1.5546875 8.98828125 C-1.51594513 8.29478073 -1.47720276 7.60128021 -1.43728638 6.88676453 C-1.13133081 2.26266162 -1.13133081 2.26266162 0 0 Z " fill="#663DE2" transform="translate(58,281)"/>
<path d="M0 0 C-0.33 0.66 -0.66 1.32 -1 2 C-2.65 2 -4.3 2 -6 2 C-6 2.66 -6 3.32 -6 4 C-6.61488281 4.19335938 -7.22976562 4.38671875 -7.86328125 4.5859375 C-8.67152344 4.84632813 -9.47976562 5.10671875 -10.3125 5.375 C-11.11300781 5.63023437 -11.91351563 5.88546875 -12.73828125 6.1484375 C-15.22724528 6.98831811 -15.22724528 6.98831811 -18 9 C-18.99 9 -19.98 9 -21 9 C-21 9.66 -21 10.32 -21 11 C-26.41176471 15 -26.41176471 15 -29 15 C-29.2371875 15.56203125 -29.474375 16.1240625 -29.71875 16.703125 C-31.28947697 19.51894042 -33.21471464 21.47955416 -35.5 23.75 C-36.2940625 24.54921875 -37.088125 25.3484375 -37.90625 26.171875 C-40 28 -40 28 -42 28 C-42.2475 28.556875 -42.495 29.11375 -42.75 29.6875 C-44.21606015 32.39971127 -46.02989471 34.63587365 -48 37 C-46.81766113 27.50750792 -37.03929828 19.04051844 -29.83203125 13.26171875 C-21.59257688 7.19973846 -10.45660462 -0.28261094 0 0 Z " fill="#6A49E2" transform="translate(117,217)"/>
<path d="M0 0 C-2.70294581 2.45722347 -4.51723325 3.89379131 -8.125 4.6875 C-14.08000214 6.11095446 -18.49474839 11.10608046 -23 15 C-24.66084801 16.34057429 -26.32569478 17.67627133 -28 19 C-27.34 17.35 -26.68 15.7 -26 14 C-25.34 14 -24.68 14 -24 14 C-23.67 13.01 -23.34 12.02 -23 11 C-16.58064368 5.49134821 -8.91616591 -0.81056054 0 0 Z " fill="#6648E6" transform="translate(205,321)"/>
<path d="M0 0 C-1.42353524 3.33136597 -3.1335313 5.27664757 -5.875 7.625 C-6.55304688 8.21539062 -7.23109375 8.80578125 -7.9296875 9.4140625 C-9.92478358 10.94238138 -11.64796976 12.11441776 -14 13 C-14.99 12.67 -15.98 12.34 -17 12 C-16.25234375 11.46890625 -15.5046875 10.9378125 -14.734375 10.390625 C-13.74953125 9.68421875 -12.7646875 8.9778125 -11.75 8.25 C-10.77546875 7.55390625 -9.8009375 6.8578125 -8.796875 6.140625 C-5.99103589 4.09561765 -5.99103589 4.09561765 -3.765625 1.734375 C-2 0 -2 0 0 0 Z " fill="#6848E4" transform="translate(138,293)"/>
<path d="M0 0 C4.5851353 2.05470743 7.84127764 5.1264089 11 9 C11.9375 11.9375 11.9375 11.9375 12 14 C7.76014063 9.88862122 3.72154258 5.59026002 0 1 C0 0.67 0 0.34 0 0 Z " fill="#6747E4" transform="translate(227,235)"/>
<path d="M0 0 C2.80561393 1.40280696 3.00680507 3.0509005 4.125 5.9375 C4.47820312 6.83339844 4.83140625 7.72929687 5.1953125 8.65234375 C6 11 6 11 6 13 C3 12 3 12 1.3125 8.75 C0.16055679 5.45873369 -0.31025348 3.4127883 0 0 Z " fill="#6848E3" transform="translate(163,268)"/>
<path d="M0 0 C4.84688192 0.78175515 9.3766367 2.39844278 14 4 C14 4.33 14 4.66 14 5 C8.32723489 5.29341888 5.00932754 5.00559652 0 2 C0 1.34 0 0.68 0 0 Z " fill="#684AE2" transform="translate(78,402)"/>
<path d="M0 0 C0.33 0.99 0.66 1.98 1 3 C-0.9375 5.6875 -0.9375 5.6875 -3 8 C-3.66 7.67 -4.32 7.34 -5 7 C-3.35 4.69 -1.7 2.38 0 0 Z " fill="#6444E4" transform="translate(143,284)"/>
<path d="M0 0 C0.33 0 0.66 0 1 0 C1 2.64 1 5.28 1 8 C0.67 8 0.34 8 0 8 C0 5.36 0 2.72 0 0 Z " fill="#000000" transform="translate(724,328)"/>
<path d="M0 0 C0.33 0 0.66 0 1 0 C1 1.65 1 3.3 1 5 C0.67 5 0.34 5 0 5 C0 3.35 0 1.7 0 0 Z " fill="#000000" transform="translate(784,336)"/>
<path d="M0 0 C0.33 0 0.66 0 1 0 C1 1.65 1 3.3 1 5 C0.67 5 0.34 5 0 5 C0 3.35 0 1.7 0 0 Z " fill="#000000" transform="translate(724,291)"/>
<path d="M0 0 C4 1 4 1 4 1 Z " fill="#000000" transform="translate(469,283)"/>
<path d="M0 0 C0.66 0 1.32 0 2 0 C1.67 0.66 1.34 1.32 1 2 C0.67 1.34 0.34 0.68 0 0 Z " fill="#8D71FF" transform="translate(80,406)"/>
<path d="M0 0 C3 1 3 1 3 1 Z " fill="#000000" transform="translate(923,364)"/>
<path d="M0 0 C0.66 0.66 1.32 1.32 2 2 C1.34 2 0.68 2 0 2 C0 1.34 0 0.68 0 0 Z " fill="#1C1C1C" transform="translate(356,358)"/>
<path d="M0 0 C0.33 0.66 0.66 1.32 1 2 C0.34 1.67 -0.32 1.34 -1 1 C-0.67 0.67 -0.34 0.34 0 0 Z " fill="#000000" transform="translate(817,344)"/>
<path d="" fill="#1C0000" transform="translate(0,0)"/>
<path d="" fill="#000000" transform="translate(0,0)"/>
<path d="M0 0 C0.66 0.66 1.32 1.32 2 2 C1.34 2 0.68 2 0 2 C0 1.34 0 0.68 0 0 Z " fill="#000000" transform="translate(884,296)"/>
<path d="M0 0 C2 1 2 1 2 1 Z " fill="#000000" transform="translate(917,396)"/>
<path d="M0 0 C2 1 2 1 2 1 Z " fill="#2A2A2A" transform="translate(914,395)"/>
<path d="M0 0 C2 1 2 1 2 1 Z " fill="#121212" transform="translate(944,371)"/>
<path d="M0 0 C2 1 2 1 2 1 Z " fill="#2A2A2A" transform="translate(373,367)"/>
<path d="" fill="#2A2A2A" transform="translate(0,0)"/>
<path d="" fill="#000000" transform="translate(0,0)"/>
<path d="M0 0 C2 1 2 1 2 1 Z " fill="#000000" transform="translate(625,360)"/>
<path d="" fill="#000000" transform="translate(0,0)"/>
<path d="" fill="#000000" transform="translate(0,0)"/>
<path d="" fill="#000000" transform="translate(0,0)"/>
<path d="" fill="#000000" transform="translate(0,0)"/>
<path d="" fill="#000000" transform="translate(0,0)"/>
<path d="" fill="#000000" transform="translate(0,0)"/>
<path d="" fill="#000000" transform="translate(0,0)"/>
<path d="" fill="#000000" transform="translate(0,0)"/>
<path d="" fill="#000000" transform="translate(0,0)"/>
<path d="M0 0 C2 1 2 1 2 1 Z " fill="#000000" transform="translate(724,301)"/>
<path d="" fill="#000000" transform="translate(0,0)"/>
<path d="M0 0 C2 1 2 1 2 1 Z " fill="#000000" transform="translate(848,283)"/>
<path d="M0 0 C2 1 2 1 2 1 Z " fill="#000000" transform="translate(542,283)"/>
<path d="M0 0 C2 1 2 1 2 1 Z " fill="#FF00FF" transform="translate(167,211)"/>
<path d="" fill="#FF00FF" transform="translate(0,0)"/>
<path d="" fill="#000000" transform="translate(0,0)"/>
<path d="" fill="#FF00FF" transform="translate(0,0)"/>
<path d="" fill="#7F7FFF" transform="translate(0,0)"/>
<path d="" fill="#7F7FFF" transform="translate(0,0)"/>
<path d="" fill="#FF00FF" transform="translate(0,0)"/>
<path d="" fill="#000000" transform="translate(0,0)"/>
<path d="" fill="#000000" transform="translate(0,0)"/>
<path d="" fill="#000000" transform="translate(0,0)"/>
<path d="" fill="#555555" transform="translate(0,0)"/>
<path d="" fill="#000000" transform="translate(0,0)"/>
<path d="" fill="#000000" transform="translate(0,0)"/>
<path d="" fill="#000000" transform="translate(0,0)"/>
<path d="" fill="#000000" transform="translate(0,0)"/>
<path d="" fill="#000000" transform="translate(0,0)"/>
<path d="" fill="#555555" transform="translate(0,0)"/>
<path d="" fill="#000000" transform="translate(0,0)"/>
<path d="" fill="#000000" transform="translate(0,0)"/>
<path d="" fill="#000000" transform="translate(0,0)"/>
<path d="" fill="#000000" transform="translate(0,0)"/>
<path d="" fill="#000000" transform="translate(0,0)"/>
<path d="" fill="#000000" transform="translate(0,0)"/>
<path d="" fill="#000000" transform="translate(0,0)"/>
<path d="" fill="#000000" transform="translate(0,0)"/>
<path d="" fill="#000000" transform="translate(0,0)"/>
<path d="" fill="#000000" transform="translate(0,0)"/>
<path d="" fill="#000000" transform="translate(0,0)"/>
<path d="" fill="#000000" transform="translate(0,0)"/>
<path d="" fill="#333333" transform="translate(0,0)"/>
<path d="" fill="#000000" transform="translate(0,0)"/>
<path d="" fill="#000000" transform="translate(0,0)"/>
<path d="" fill="#000000" transform="translate(0,0)"/>
<path d="" fill="#000000" transform="translate(0,0)"/>
<path d="" fill="#000000" transform="translate(0,0)"/>
<path d="" fill="#000000" transform="translate(0,0)"/>
<path d="" fill="#000000" transform="translate(0,0)"/>
<path d="" fill="#555555" transform="translate(0,0)"/>
<path d="" fill="#000000" transform="translate(0,0)"/>
<path d="" fill="#000000" transform="translate(0,0)"/>
<path d="" fill="#FF00FF" transform="translate(0,0)"/>
<path d="" fill="#000000" transform="translate(0,0)"/>
<path d="" fill="#555555" transform="translate(0,0)"/>
<path d="" fill="#AA55FF" transform="translate(0,0)"/>
<path d="" fill="#000000" transform="translate(0,0)"/>
<path d="" fill="#000000" transform="translate(0,0)"/>
<path d="" fill="#0000FF" transform="translate(0,0)"/>
<path d="" fill="#7F7FFF" transform="translate(0,0)"/>
<path d="" fill="#000000" transform="translate(0,0)"/>
<path d="" fill="#5555AA" transform="translate(0,0)"/>
<path d="" fill="#0000FF" transform="translate(0,0)"/>
<path d="" fill="#000000" transform="translate(0,0)"/>
<path d="" fill="#555500" transform="translate(0,0)"/>
<path d="" fill="#000000" transform="translate(0,0)"/>
<path d="" fill="#000000" transform="translate(0,0)"/>
<path d="" fill="#000000" transform="translate(0,0)"/>
<path d="" fill="#000000" transform="translate(0,0)"/>
<path d="" fill="#000000" transform="translate(0,0)"/>
<path d="" fill="#555500" transform="translate(0,0)"/>
<path d="" fill="#000000" transform="translate(0,0)"/>
<path d="" fill="#000000" transform="translate(0,0)"/>
<path d="" fill="#000000" transform="translate(0,0)"/>
<path d="" fill="#000000" transform="translate(0,0)"/>
<path d="" fill="#331919" transform="translate(0,0)"/>
<path d="" fill="#000000" transform="translate(0,0)"/>
<path d="" fill="#000000" transform="translate(0,0)"/>
<path d="" fill="#000000" transform="translate(0,0)"/>
<path d="" fill="#000000" transform="translate(0,0)"/>
<path d="" fill="#000000" transform="translate(0,0)"/>
<path d="" fill="#000000" transform="translate(0,0)"/>
<path d="" fill="#000000" transform="translate(0,0)"/>
<path d="" fill="#FF00FF" transform="translate(0,0)"/>
<path d="" fill="#000000" transform="translate(0,0)"/>
<path d="" fill="#000000" transform="translate(0,0)"/>
<path d="" fill="#555500" transform="translate(0,0)"/>
<path d="" fill="#000000" transform="translate(0,0)"/>
<path d="" fill="#000000" transform="translate(0,0)"/>
<path d="" fill="#000000" transform="translate(0,0)"/>
<path d="" fill="#000000" transform="translate(0,0)"/>
<path d="" fill="#000000" transform="translate(0,0)"/>
<path d="" fill="#000000" transform="translate(0,0)"/>
<path d="" fill="#000000" transform="translate(0,0)"/>
<path d="" fill="#000000" transform="translate(0,0)"/>
<path d="" fill="#000000" transform="translate(0,0)"/>
<path d="" fill="#000000" transform="translate(0,0)"/>
<path d="" fill="#000000" transform="translate(0,0)"/>
<path d="" fill="#000000" transform="translate(0,0)"/>
<path d="" fill="#000000" transform="translate(0,0)"/>
<path d="" fill="#FF00FF" transform="translate(0,0)"/>
<path d="" fill="#000000" transform="translate(0,0)"/>
<path d="" fill="#000000" transform="translate(0,0)"/>
<path d="" fill="#000000" transform="translate(0,0)"/>
<path d="" fill="#000000" transform="translate(0,0)"/>
<path d="" fill="#000000" transform="translate(0,0)"/>
<path d="" fill="#000000" transform="translate(0,0)"/>
<path d="" fill="#000000" transform="translate(0,0)"/>
<path d="" fill="#000000" transform="translate(0,0)"/>
<path d="" fill="#7F7FFF" transform="translate(0,0)"/>
<path d="" fill="#000000" transform="translate(0,0)"/>
<path d="" fill="#000000" transform="translate(0,0)"/>
<path d="" fill="#000000" transform="translate(0,0)"/>
<path d="" fill="#000000" transform="translate(0,0)"/>
<path d="" fill="#000000" transform="translate(0,0)"/>
<path d="" fill="#000000" transform="translate(0,0)"/>
<path d="" fill="#000000" transform="translate(0,0)"/>
<path d="" fill="#000000" transform="translate(0,0)"/>
<path d="" fill="#000000" transform="translate(0,0)"/>
<path d="" fill="#000000" transform="translate(0,0)"/>
<path d="" fill="#000000" transform="translate(0,0)"/>
<path d="" fill="#000000" transform="translate(0,0)"/>
<path d="" fill="#000000" transform="translate(0,0)"/>
<path d="" fill="#000000" transform="translate(0,0)"/>
<path d="" fill="#7F7FFF" transform="translate(0,0)"/>
<path d="" fill="#000000" transform="translate(0,0)"/>
<path d="" fill="#000000" transform="translate(0,0)"/>
<path d="" fill="#000000" transform="translate(0,0)"/>
<path d="" fill="#000000" transform="translate(0,0)"/>
<path d="" fill="#000000" transform="translate(0,0)"/>
<path d="" fill="#000000" transform="translate(0,0)"/>
<path d="" fill="#000000" transform="translate(0,0)"/>
<path d="" fill="#0000FF" transform="translate(0,0)"/>
<path d="" fill="#000000" transform="translate(0,0)"/>
<path d="" fill="#0000FF" transform="translate(0,0)"/>
<path d="" fill="#AA55FF" transform="translate(0,0)"/>
<path d="" fill="#000000" transform="translate(0,0)"/>
<path d="" fill="#000000" transform="translate(0,0)"/>
<path d="" fill="#000000" transform="translate(0,0)"/>
<path d="" fill="#000000" transform="translate(0,0)"/>
<path d="" fill="#7F7F7F" transform="translate(0,0)"/>
<path d="" fill="#000000" transform="translate(0,0)"/>
<path d="" fill="#000000" transform="translate(0,0)"/>
<path d="" fill="#000000" transform="translate(0,0)"/>
<path d="" fill="#000000" transform="translate(0,0)"/>
<path d="" fill="#000000" transform="translate(0,0)"/>
<path d="" fill="#000000" transform="translate(0,0)"/>
<path d="" fill="#333333" transform="translate(0,0)"/>
<path d="" fill="#000000" transform="translate(0,0)"/>
<path d="" fill="#000000" transform="translate(0,0)"/>
<path d="" fill="#3F3F3F" transform="translate(0,0)"/>
<path d="" fill="#000000" transform="translate(0,0)"/>
<path d="" fill="#FF00FF" transform="translate(0,0)"/>
<path d="" fill="#000000" transform="translate(0,0)"/>
<path d="" fill="#000000" transform="translate(0,0)"/>
<path d="" fill="#555555" transform="translate(0,0)"/>
<path d="" fill="#000000" transform="translate(0,0)"/>
<path d="" fill="#000000" transform="translate(0,0)"/>
<path d="" fill="#000000" transform="translate(0,0)"/>
<path d="" fill="#000000" transform="translate(0,0)"/>
<path d="" fill="#000000" transform="translate(0,0)"/>
<path d="" fill="#000000" transform="translate(0,0)"/>
<path d="" fill="#000000" transform="translate(0,0)"/>
<path d="" fill="#000000" transform="translate(0,0)"/>
<path d="" fill="#000000" transform="translate(0,0)"/>
<path d="" fill="#000000" transform="translate(0,0)"/>
<path d="" fill="#000000" transform="translate(0,0)"/>
<path d="" fill="#555555" transform="translate(0,0)"/>
<path d="" fill="#555555" transform="translate(0,0)"/>
<path d="" fill="#000000" transform="translate(0,0)"/>
<path d="" fill="#000000" transform="translate(0,0)"/>
<path d="" fill="#000000" transform="translate(0,0)"/>
<path d="" fill="#000000" transform="translate(0,0)"/>
<path d="" fill="#000000" transform="translate(0,0)"/>
<path d="" fill="#000000" transform="translate(0,0)"/>
<path d="" fill="#000000" transform="translate(0,0)"/>
<path d="" fill="#000000" transform="translate(0,0)"/>
<path d="" fill="#000000" transform="translate(0,0)"/>
<path d="" fill="#000000" transform="translate(0,0)"/>
<path d="" fill="#0000FF" transform="translate(0,0)"/>
<path d="" fill="#000000" transform="translate(0,0)"/>
<path d="" fill="#000000" transform="translate(0,0)"/>
<path d="" fill="#000000" transform="translate(0,0)"/>
<path d="" fill="#000000" transform="translate(0,0)"/>
<path d="" fill="#000000" transform="translate(0,0)"/>
<path d="" fill="#7F7FFF" transform="translate(0,0)"/>
<path d="" fill="#7F7FFF" transform="translate(0,0)"/>
<path d="" fill="#FF00FF" transform="translate(0,0)"/>
<path d="" fill="#FF00FF" transform="translate(0,0)"/>
<path d="" fill="#FF00FF" transform="translate(0,0)"/>
</svg>
